<svg width="127" height="131" viewBox="0 0 127 131" fill="none" xmlns="http://www.w3.org/2000/svg">
<g clip-path="url(#clip0_413_39)">
<path d="M124.403 130.993C126.677 130.995 127.817 128.238 126.21 126.625L90.7656 91.0643C89.6316 89.9266 89.8164 88.0359 91.0864 87.0534C102.581 78.1621 109.986 64.2355 109.986 48.5652C110.029 21.7391 88.3614 0 61.6233 0H6.15672C3.88473 0 2.74692 2.75597 4.35346 4.36779L35.2553 35.3713C36.8618 36.9832 39.6088 35.8416 39.6088 33.5621V29.0803C39.6088 27.6673 40.7505 26.5217 42.159 26.5217H55.6863C71.9372 26.5217 83.5078 33.9565 83.5078 48.1739C83.5078 60.913 72.9772 69.3913 57.3764 70.6087H38.1288C36.7203 70.6087 35.5786 71.7542 35.5786 73.1673V94.5284C35.5786 95.9414 36.7203 97.087 38.1288 97.087H58.4002C59.0765 97.087 59.7252 97.3565 60.2034 97.8364L92.4693 130.208C92.9468 130.687 93.5942 130.957 94.2696 130.958L124.403 130.993Z" fill="url(#paint0_linear_413_39)"/>
<path d="M28.1947 62.1532C27.1983 63.1496 25.5859 63.1483 24.5911 62.1503L17.5708 55.1069C15.9643 53.4951 13.2174 54.6366 13.2174 56.9161V101.963C13.2174 103.376 12.0756 104.522 10.6672 104.522H2.5502C1.14176 104.522 0 105.667 0 107.08V128.441C0 129.854 1.14176 131 2.5502 131H37.0586C38.467 131 39.6088 129.854 39.6088 128.441V56.9018C39.6088 54.6244 36.866 53.4819 35.2583 55.0896L28.1947 62.1532Z" fill="url(#paint1_linear_413_39)"/>
</g>
<defs>
<linearGradient id="paint0_linear_413_39" x1="-5.10125e-06" y1="131" x2="130.57" y2="131" gradientUnits="userSpaceOnUse">
<stop stop-color="#28307C"/>
<stop offset="1" stop-color="#03061B"/>
</linearGradient>
<linearGradient id="paint1_linear_413_39" x1="19.8044" y1="50.7391" x2="19.8044" y2="131" gradientUnits="userSpaceOnUse">
<stop stop-color="#031F7A"/>
<stop offset="1" stop-color="#0638E0"/>
</linearGradient>
<clipPath id="clip0_413_39">
<rect width="127" height="131" fill="white"/>
</clipPath>
</defs>
</svg>
