<svg width="27" height="79" viewBox="0 0 27 79" fill="none" xmlns="http://www.w3.org/2000/svg">
<path d="M11.6773 70.4344C12.6967 69.415 14.3463 69.4163 15.364 70.4374L22.5461 77.6432C24.1897 79.2922 27 78.1243 27 75.7923L27 29.7065C27 24.5531 27 29.9829 27 24.5088L27 13.8113L27 2.55762C27 1.11197 25.9944 -8.79123e-08 24.5535 -2.13881e-07L2.60902 -2.13233e-06C1.16811 -2.2583e-06 4.84674e-06 1.17193 4.72036e-06 2.61759L-1.67805e-06 75.8069C-1.88174e-06 78.1369 2.80602 79.3057 4.45083 77.6609L11.6773 70.4344Z" fill="url(#paint0_linear_428_65)"/>
<defs>
<linearGradient id="paint0_linear_428_65" x1="20.2611" y1="82.1117" x2="20.2611" y2="1.85798e-06" gradientUnits="userSpaceOnUse">
<stop stop-color="#031F7A"/>
<stop offset="1" stop-color="#0638E0"/>
</linearGradient>
</defs>
</svg>
