<svg width="176" height="176" viewBox="0 0 176 176" fill="none" xmlns="http://www.w3.org/2000/svg"><g filter="url(#filter0_f_515_54)"><path d="M4 58.194C4 28.264 28.263 4 58.194 4h59.612C147.737 4 172 28.263 172 58.194v59.612C172 147.737 147.737 172 117.806 172H58.194C28.264 172 4 147.737 4 117.806V58.194z" fill="url(#paint0_linear_515_54)"/><path d="M58.194 5h59.612C147.184 5 171 28.816 171 58.194v59.612C171 147.184 147.184 171 117.806 171H58.194C28.816 171 5 147.184 5 117.806V58.194C5 28.816 28.816 5 58.194 5z" stroke="#fff" stroke-width="2"/></g><path d="M58.194 5h59.612C147.184 5 171 28.816 171 58.194v59.612C171 147.184 147.184 171 117.806 171H58.194C28.816 171 5 147.184 5 117.806V58.194C5 28.816 28.816 5 58.194 5z" fill="url(#paint1_linear_515_54)" fill-opacity=".1"/><path d="M58.194 5h59.612C147.184 5 171 28.816 171 58.194v59.612C171 147.184 147.184 171 117.806 171H58.194C28.816 171 5 147.184 5 117.806V58.194C5 28.816 28.816 5 58.194 5z" fill="#fff" fill-opacity=".8"/><path d="M58.194 5h59.612C147.184 5 171 28.816 171 58.194v59.612C171 147.184 147.184 171 117.806 171H58.194C28.816 171 5 147.184 5 117.806V58.194C5 28.816 28.816 5 58.194 5z" stroke="#fff" stroke-width="2"/><g clip-path="url(#clip0_515_54)"><path d="M138.853 141.994c1.88.002 2.823-2.271 1.494-3.601l-29.305-29.317c-.937-.938-.784-2.497.266-3.307 9.503-7.33 15.625-18.812 15.625-31.73C126.969 51.921 109.055 34 86.948 34H41.09c-1.878 0-2.819 2.272-1.49 3.6l25.548 25.561c1.328 1.329 3.6.388 3.6-1.491v-3.695c0-1.165.943-2.11 2.108-2.11H82.04c13.436 0 23.002 6.13 23.002 17.85 0 10.503-8.707 17.493-21.605 18.497H67.524a2.109 2.109 0 00-2.109 2.11v17.61c0 1.165.944 2.109 2.109 2.109h16.76c.559 0 1.095.222 1.49.618l26.677 26.688c.395.395.93.618 1.488.618l24.914.029z" fill="url(#paint2_linear_515_54)"/><path d="M59.31 85.24a2.108 2.108 0 01-2.979-.002l-5.804-5.806c-1.328-1.33-3.6-.388-3.6 1.491v37.138a2.11 2.11 0 01-2.108 2.11h-6.71A2.109 2.109 0 0036 122.28v17.611c0 1.165.944 2.109 2.108 2.109H66.64a2.109 2.109 0 002.108-2.109v-58.98c0-1.877-2.267-2.819-3.597-1.494l-5.84 5.824z" fill="url(#paint3_linear_515_54)"/></g><defs><linearGradient id="paint0_linear_515_54" x1="172" y1="4" x2="4" y2="172" gradientUnits="userSpaceOnUse"><stop stop-color="#fff"/><stop offset=".185" stop-color="#fff"/><stop offset=".415" stop-color="#EAEAEA"/><stop offset=".67" stop-color="#D3D3D3"/><stop offset=".83" stop-color="#fff"/><stop offset="1" stop-color="#fff"/></linearGradient><linearGradient id="paint1_linear_515_54" x1="172" y1="4" x2="4" y2="172" gradientUnits="userSpaceOnUse"><stop stop-color="#fff"/><stop offset=".185" stop-color="#fff"/><stop offset=".415" stop-color="#EAEAEA"/><stop offset=".67" stop-color="#D3D3D3"/><stop offset=".83" stop-color="#fff"/><stop offset="1" stop-color="#fff"/></linearGradient><linearGradient id="paint2_linear_515_54" x1="36" y1="142" x2="143.952" y2="142" gradientUnits="userSpaceOnUse"><stop stop-color="#28307C"/><stop offset="1" stop-color="#03061B"/></linearGradient><linearGradient id="paint3_linear_515_54" x1="52.374" y1="75.831" x2="52.374" y2="142" gradientUnits="userSpaceOnUse"><stop stop-color="#031F7A"/><stop offset="1" stop-color="#0638E0"/></linearGradient><clipPath id="clip0_515_54"><path fill="#fff" transform="translate(36 34)" d="M0 0h105v108H0z"/></clipPath><filter id="filter0_f_515_54" x="0" y="0" width="176" height="176" filterUnits="userSpaceOnUse" color-interpolation-filters="sRGB"><feFlood flood-opacity="0" result="BackgroundImageFix"/><feBlend in="SourceGraphic" in2="BackgroundImageFix" result="shape"/><feGaussianBlur stdDeviation="2" result="effect1_foregroundBlur_515_54"/></filter></defs></svg>