<svg id="Capa_1" height="512" width="512" xmlns="http://www.w3.org/2000/svg"><path d="M488.468 95.677H23.532c-8.854 0-16.032 7.178-16.032 16.032V400.29c0 8.854 7.178 16.032 16.032 16.032h464.935c8.854 0 16.032-7.178 16.032-16.032V111.71c.001-8.855-7.177-16.033-16.031-16.033z" fill="#95cc81"/><path d="M434.746 252.576l-170.41-103.728a16.031 16.031 0 00-16.672 0L77.254 252.576c-2.565 1.562-2.565 5.286 0 6.847l170.41 103.728a16.031 16.031 0 0016.672 0l170.41-103.728c2.566-1.561 2.566-5.285 0-6.847z" fill="#ffe07d"/><circle cx="256" cy="256" fill="#5055a0" r="64.129"/><path d="M31.548 352.193V95.677h-8.016c-8.854 0-16.032 7.178-16.032 16.032V400.29c0 8.854 7.179 16.032 16.032 16.032h464.935c8.854 0 16.032-7.178 16.032-16.032v-8.016H71.629c-22.1 0-40.081-17.98-40.081-40.081z" fill="#7dbd80"/><path d="M488.468 88.177H23.532C10.557 88.177 0 98.734 0 111.71v288.58c0 12.976 10.557 23.532 23.532 23.532h464.936c12.976 0 23.532-10.557 23.532-23.532V111.71c0-12.976-10.557-23.533-23.532-23.533zM497 400.29c0 4.705-3.828 8.532-8.532 8.532H23.532c-4.705 0-8.532-3.828-8.532-8.532V111.71c0-4.705 3.828-8.532 8.532-8.532h464.936c4.705 0 8.532 3.827 8.532 8.532z"/><path d="M438.646 246.17l-170.41-103.728a23.448 23.448 0 00-24.471 0L73.354 246.17c-3.459 2.105-5.524 5.78-5.524 9.83s2.065 7.725 5.524 9.83l26.44 16.094a7.5 7.5 0 007.799-12.813L86.054 256l165.51-100.745a8.5 8.5 0 018.873 0L425.946 256l-165.51 100.745a8.5 8.5 0 01-8.873 0l-114.332-69.594a7.5 7.5 0 10-7.799 12.813l114.332 69.594c3.774 2.297 8.005 3.446 12.236 3.446s8.462-1.149 12.235-3.446l170.41-103.728c3.459-2.105 5.525-5.78 5.525-9.83s-2.065-7.725-5.524-9.83z"/><path d="M256 199.371c10.047 0 19.976 2.728 28.712 7.887a7.5 7.5 0 007.628-12.916c-11.046-6.524-23.612-9.972-36.34-9.972-39.496 0-71.629 32.133-71.629 71.629s32.133 71.629 71.629 71.629 71.629-32.133 71.629-71.629c0-12.728-3.448-25.295-9.973-36.341a7.5 7.5 0 00-12.915 7.628c5.16 8.737 7.888 18.665 7.888 28.712 0 .545-.026 1.084-.041 1.625-31.084-20.117-66.578-31.409-103.716-32.978 10.161-15.223 27.491-25.274 47.128-25.274zm53.755 74.404c-7.473 22.542-28.739 38.854-53.755 38.854-31.225 0-56.629-25.404-56.629-56.629 0-5.749.867-11.298 2.467-16.53 38.913.383 76.101 12.206 107.917 34.305z"/></svg>