<svg width="127" height="131" viewBox="0 0 127 131" fill="none" xmlns="http://www.w3.org/2000/svg"><g clip-path="url(#clip0_413_39)"><path d="M124.403 130.993c2.274.002 3.414-2.755 1.807-4.368l-35.444-35.56c-1.134-1.138-.95-3.03.32-4.012 11.495-8.89 18.9-22.817 18.9-38.488C110.029 21.74 88.361 0 61.623 0H6.157c-2.272 0-3.41 2.756-1.804 4.368L35.255 35.37c1.607 1.612 4.354.47 4.354-1.809V29.08a2.554 2.554 0 012.55-2.558h13.527c16.251 0 27.822 7.434 27.822 21.652 0 12.739-10.53 21.217-26.132 22.435H38.13a2.554 2.554 0 00-2.55 2.558v21.361a2.554 2.554 0 002.55 2.559H58.4c.677 0 1.325.27 1.803.75l32.266 32.371a2.548 2.548 0 001.8.75l30.134.035z" fill="url(#paint0_linear_413_39)"/><path d="M28.195 62.153a2.544 2.544 0 01-3.604-.003l-7.02-7.043c-1.607-1.612-4.354-.47-4.354 1.81v45.046a2.555 2.555 0 01-2.55 2.559H2.55A2.554 2.554 0 000 107.08v21.361A2.555 2.555 0 002.55 131h34.51a2.555 2.555 0 002.55-2.559v-71.54c0-2.277-2.743-3.42-4.35-1.811l-7.064 7.063z" fill="url(#paint1_linear_413_39)"/></g><defs><linearGradient id="paint0_linear_413_39" x1="0" y1="131" x2="130.57" y2="131" gradientUnits="userSpaceOnUse"><stop stop-color="#28307C"/><stop offset="1" stop-color="#03061B"/></linearGradient><linearGradient id="paint1_linear_413_39" x1="19.804" y1="50.739" x2="19.804" y2="131" gradientUnits="userSpaceOnUse"><stop stop-color="#031F7A"/><stop offset="1" stop-color="#0638E0"/></linearGradient><clipPath id="clip0_413_39"><path fill="#fff" d="M0 0h127v131H0z"/></clipPath></defs></svg>